# xmcd CD database file
#
# Track frame offsets:
#	150
#	47617
#	82980
#	109742
#	141812
#	178937
#	227757
#	255935
#	281715
#	305332
#
# Disc length: 4427 seconds
#
# Revision: 0
# Processed by: cddbd v1.5.1PL0 Copyright (c) Steve Scherf et al.
# Submitted via: CDex 1.51
#
DISCID=8011490a
DTITLE=JAZZ STANDARDS BEST 101 VOL.2 - JAZZ STANDARDS BEST 101 VOL.2
DYEAR=1990
DGENRE=Jazz
TTITLE0=BlackOrpheus(Bonfa+Jobim)BarneyWilenWithMalWaldron
TTITLE1=BlueMonk(monk)AlCohn
TTITLE2=BlueMoon(Hart+Rodgers)ChetBaker
TTITLE3=BodyAndSoul(Green)RonnieMathews
TTITLE4=ButBeautiful(Heusen)HankJonesAndRedMitchll
TTITLE5=Caravan(Ellington)FreddieHubbard
TTITLE6=CarelessLove KennyDrewTrioWithSvendAsmussen
TTITLE7=Cherokee(Noble)FreddieHubbard
TTITLE8=AChildIsBorn(Jones)KennyDrewTrioWithClarkTerry
TTITLE9=Confirmation(Parker)LouDonaldsonQuartet
EXTD=YEAR: 1990
EXTT0=
EXTT1=
EXTT2=
EXTT3=
EXTT4=
EXTT5=
EXTT6=
EXTT7=
EXTT8=
EXTT9=
PLAYORDER=
